<svg xmlns="http://www.w3.org/2000/svg" viewBox="0 0 1200 480" width="100%" height="100%">
  <defs>
    <style type="text/css">
      @import url('https://fonts.googleapis.com/css2?family=Plus+Jakarta+Sans:wght@400;500;600;700;800&amp;family=Share+Tech+Mono&amp;display=swap');
      
      :root {
        --bg: #fffdf7;
        --border: #111111;
        --window-bg: #ffffff;
        --window-title: #98e4c7;
      }

      .text-title { font-family: 'Plus Jakarta Sans', sans-serif; font-weight: 800; fill: var(--border); }
      .text-subtitle { font-family: 'Plus Jakarta Sans', sans-serif; font-weight: 700; fill: var(--border); }
      .text-body-style { font-family: 'Plus Jakarta Sans', sans-serif; font-weight: 600; fill: var(--border); }
      .text-tech { font-family: 'Share Tech Mono', monospace; fill: #888888; font-size: 14px; }
      
      .json-text { font-family: 'Share Tech Mono', monospace; font-size: 16px; fill: var(--border); }
      .json-key { fill: #9253d1; font-weight: 700; }
      .json-string { fill: #208761; }
      .json-number { fill: #b86214; }
      
      .badge-text { font-family: 'Share Tech Mono', monospace; font-weight: 700; fill: #111111; font-size: 12px; text-anchor: middle; }
      
      .neo-shadow { fill: #111111; }

      @media (prefers-color-scheme: dark) {
        :root {
          /* Fundo verde vibrante mas escuro */
          --bg: #1f5e42; 
          --border: #111111; /* Mantém as bordas pretas (neo-brutalismo) */
          --window-bg: #ffffff; /* Mockup continua claro como no exemplo */
          --window-title: #98e4c7;
        }
        /* Textos fora da janela ficam brancos/claros para leitura no fundo escuro */
        .text-title { fill: #ffffff; }
        .text-subtitle { fill: #cab4e9; }
        .text-body-style { fill: #e5e7eb; }
        
        .text-tech { fill: #b0b5bc; }
        .logo-glow { filter: drop-shadow(0px 0px 12px rgba(255,255,255,0.7)); }
        
        
        }

      @keyframes float-mockup {
        0%, 100% { transform: translateY(0px) rotate(0.5deg); }
        50% { transform: translateY(-8px) rotate(-0.5deg); }
      }
      .mockup-group { animation: float-mockup 6s ease-in-out infinite; transform-origin: 900px 240px; }

      @keyframes float-badge-1 { 0%, 100% { transform: translate(0px, 0px); } 50% { transform: translate(-2px, -6px); } }
      @keyframes float-badge-2 { 0%, 100% { transform: translate(0px, 0px); } 50% { transform: translate(3px, -4px); } }
      @keyframes float-badge-3 { 0%, 100% { transform: translate(0px, 0px); } 50% { transform: translate(-2px, 5px); } }
      .badge-float-1 { animation: float-badge-1 5s ease-in-out infinite; }
      .badge-float-2 { animation: float-badge-2 4.5s ease-in-out infinite; }
      .badge-float-3 { animation: float-badge-3 4.8s ease-in-out infinite; }
    </style>

    <pattern id="grid" width="40" height="40" patternUnits="userSpaceOnUse">
      <path d="M 40 0 L 0 0 0 40" fill="none" stroke="#e0e0e0" stroke-width="1"/>
    </pattern>
  </defs>

  <!-- Background Base -->
  <rect width="1200" height="480" fill="var(--bg)" />
  <rect width="1200" height="480" fill="url(#grid)" />

  <!-- LEFT SIDE: Project Identity -->
  <g transform="translate(40, 140) scale(0.20)">
    <!-- Base64 Logo -->
    <g class="logo-glow">
<rect x="125" y="610" width="325" height="140" rx="15" fill="#ffffff" />
<path d="M 637.93 834.52 C627.40,836.73 62.60,836.63 56.54,834.41 C52.04,832.76 48.76,829.96 45.90,825.33 C44.51,823.09 42.49,821.66 39.10,820.53 C32.50,818.34 26.66,813.05 23.31,806.22 L 20.50 800.50 L 20.50 504.00 C20.50,340.92 20.85,206.25 21.28,204.72 C21.70,203.20 23.66,200.16 25.64,197.98 C30.26,192.86 36.37,191.00 48.57,191.00 C56.16,191.00 57.90,190.71 58.41,189.37 C58.75,188.48 58.99,182.23 58.93,175.50 C58.84,164.76 59.10,162.71 61.03,158.88 C65.97,149.02 72.51,144.89 84.50,144.06 L 92.50 143.50 L 93.00 90.50 C93.44,43.75 93.69,37.15 95.15,34.50 C97.65,29.94 101.28,26.42 106.12,23.83 L 110.50 21.50 L 578.50 21.50 L 582.50 23.66 C587.74,26.48 591.41,30.45 593.92,36.00 C595.71,39.96 595.96,42.56 595.98,57.64 L 596.00 74.78 L 599.75 75.48 C605.02,76.47 608.61,78.83 611.77,83.39 L 614.50 87.32 L 614.76 120.91 C615.01,153.47 615.09,154.62 617.24,158.50 C619.16,161.98 619.50,164.35 619.84,176.66 L 620.22 190.83 L 635.86 191.18 C649.56,191.48 651.99,191.79 655.50,193.68 C659.87,196.04 662.07,198.31 664.45,202.90 C665.84,205.58 666.00,229.57 666.00,430.22 L 666.00 654.53 L 677.06 665.52 C689.54,677.91 695.34,685.94 700.47,697.93 C712.90,726.96 712.39,757.60 699.01,785.76 C693.96,796.37 690.17,801.88 682.06,810.36 C670.50,822.45 655.03,830.92 637.93,834.52 ZM 45.12 810.00 C49.86,811.13 538.14,811.16 539.95,810.04 C541.08,809.33 539.38,807.23 532.20,800.48 C513.96,783.31 503.98,763.37 500.92,738.00 C495.20,690.52 525.33,645.14 571.71,631.41 C582.41,628.25 603.51,627.01 614.45,628.92 C623.25,630.45 634.11,634.02 641.82,637.91 C645.19,639.61 648.41,641.00 648.97,641.00 C649.67,641.00 650.00,615.76 650.00,562.95 C650.00,558.81 650.00,554.88 650.00,551.14 C650.01,489.61 650.01,482.46 646.44,478.74 C645.75,478.03 644.94,477.44 643.96,476.62 L 640.85 474.00 L 546.58 474.00 C458.03,474.00 452.22,474.11 450.82,475.75 C450.00,476.71 444.94,487.17 439.59,499.00 C428.20,524.16 426.33,527.28 421.04,529.98 C417.17,531.96 415.38,532.00 339.79,531.98 C266.93,531.96 262.27,531.85 258.50,530.12 C256.30,529.11 253.75,527.43 252.82,526.39 C251.90,525.35 246.16,513.92 240.05,501.00 C233.95,488.08 228.02,476.71 226.87,475.75 C224.91,474.11 218.98,474.00 133.64,474.00 C44.46,474.01 42.43,474.05 39.24,475.99 C37.45,477.09 35.09,479.45 33.99,481.24 C32.03,484.46 32.01,486.60 32.00,641.60 L 32.00 798.70 L 34.25 802.01 C37.14,806.25 40.86,808.99 45.12,810.00 ZM 259.25 513.75 L 262.42 519.00 L 415.76 519.00 L 418.20 515.75 C421.00,512.03 433.80,484.76 434.51,481.01 C434.76,479.64 435.88,477.30 436.99,475.80 C438.09,474.31 439.00,472.44 439.00,471.65 C439.00,470.86 439.67,469.95 440.50,469.64 C441.33,469.32 442.01,468.49 442.03,467.78 C442.05,467.08 443.06,465.79 444.28,464.92 C449.65,461.08 453.87,460.89 531.69,461.06 L 607.09 461.22 L 607.15 392.86 C607.19,337.26 606.95,324.03 605.85,321.97 C603.20,317.00 600.08,313.88 596.82,312.95 C594.77,312.36 496.49,312.00 338.72,312.00 C87.54,312.00 83.87,312.03 80.07,313.96 C77.96,315.04 74.84,317.81 73.14,320.12 L 70.05 324.32 L 70.01 391.29 C69.98,439.18 70.29,458.65 71.09,459.61 C72.01,460.71 85.88,460.96 148.77,460.99 L 225.32 461.02 L 229.83 463.26 C234.07,465.37 239.22,471.02 240.99,475.50 C241.42,476.60 243.86,481.89 246.41,487.27 C248.95,492.64 252.17,499.61 253.56,502.77 C254.95,505.92 257.51,510.86 259.25,513.75 ZM 70.23 234.57 C70.08,273.31 70.16,305.00 70.40,305.00 C70.64,305.00 72.93,304.10 75.50,303.00 C80.13,301.02 82.36,301.00 339.33,301.02 C595.38,301.04 598.55,301.07 602.86,303.02 C605.26,304.11 607.39,305.00 607.61,305.00 C607.82,305.00 608.00,273.61 608.00,235.25 C607.99,167.83 607.93,165.39 606.04,162.30 C604.97,160.54 602.61,158.29 600.79,157.30 C597.65,155.58 585.96,155.50 339.00,155.50 C319.03,155.50 300.57,155.50 283.51,155.50 C85.15,155.47 75.97,155.47 73.61,159.48 C73.30,160.02 73.10,160.63 72.59,161.32 C70.52,164.11 70.50,164.91 70.23,234.57 ZM 104.00 93.45 L 104.00 144.00 L 344.25 143.75 L 584.50 143.50 L 584.50 93.00 C584.50,46.61 584.36,42.24 582.73,39.27 C582.27,38.42 582.18,37.69 581.88,37.06 C579.94,32.96 569.36,32.97 394.92,32.99 C379.21,33.00 362.17,33.00 343.68,33.00 L 112.27 33.00 L 109.61 35.09 C108.68,35.82 107.91,36.41 107.26,37.11 C104.00,40.65 104.00,47.19 104.00,90.61 C104.00,91.54 104.00,92.49 104.00,93.45 ZM 446.80 755.60 C444.51,756.78 420.95,756.99 293.30,756.94 C210.36,756.90 141.57,756.50 140.43,756.04 C139.29,755.57 137.59,754.03 136.66,752.60 C135.60,750.99 134.04,750.00 132.54,750.00 C128.92,750.00 124.84,748.19 121.66,745.19 C120.71,744.29 119.92,743.60 119.26,742.81 C115.99,738.89 115.99,732.25 116.00,682.76 C116.00,680.43 116.00,678.02 116.00,675.50 C116.00,672.46 116.00,669.56 116.00,666.80 C115.99,618.67 115.99,611.52 119.56,607.80 C120.39,606.94 121.41,606.26 122.67,605.30 L 126.34 602.50 L 281.03 602.24 C291.58,602.22 301.43,602.20 310.64,602.19 C432.05,601.96 440.58,601.95 443.88,606.09 C444.38,606.72 444.76,607.44 445.39,608.27 C446.78,610.08 448.23,613.58 448.62,616.03 C449.10,619.05 450.26,621.37 452.19,623.17 L 455.04 625.84 L 454.77 687.34 L 454.50 748.84 L 452.00 751.51 C450.62,752.99 448.28,754.82 446.80,755.60 ZM 826.17 786.35 C824.56,787.80 821.05,788.00 797.23,788.00 C770.34,788.00 770.10,787.98 768.56,785.78 C767.17,783.80 767.00,772.09 767.00,679.85 C767.00,585.74 767.15,575.99 768.61,574.53 C770.08,573.06 777.90,572.95 853.36,573.26 C929.63,573.58 937.00,573.75 942.50,575.39 C956.40,579.52 969.03,589.21 974.45,599.90 C980.00,610.84 981.00,617.84 981.00,645.50 C981.00,680.12 978.97,687.96 966.69,700.75 C960.73,706.96 949.13,714.00 944.87,714.00 C944.67,714.00 944.49,713.99 944.32,713.98 C943.86,713.96 943.49,713.94 943.30,714.12 C942.48,714.89 945.18,719.39 959.63,743.49 C960.87,745.57 962.20,747.79 963.63,750.17 C973.73,767.04 982.28,781.57 982.62,782.46 C982.97,783.37 982.46,784.94 981.47,786.04 C979.77,787.91 978.22,788.00 947.77,788.00 C915.91,788.00 915.84,788.00 913.84,785.75 C912.74,784.51 907.68,775.62 902.61,766.00 C897.54,756.37 890.11,742.31 886.11,734.75 L 878.83 721.00 L 828.00 721.00 L 828.00 752.85 C828.00,782.43 827.87,784.81 826.17,786.35 ZM 128.56 735.78 L 130.11 738.00 L 434.89 738.00 L 436.44 735.78 C437.81,733.83 438.00,726.47 438.00,676.00 C438.00,625.53 437.81,618.17 436.44,616.22 L 434.89 614.00 L 130.11 614.00 L 128.56 616.22 C127.19,618.17 127.00,625.53 127.00,676.00 C127.00,726.47 127.19,733.83 128.56,735.78 ZM 820.78 266.44 C818.91,267.75 814.84,267.99 795.53,267.92 C782.86,267.88 771.83,267.60 771.00,267.31 C770.62,267.17 770.28,267.06 769.97,266.90 C767.00,265.30 767.00,258.18 767.00,168.06 L 767.00 162.88 C767.00,72.63 767.16,61.98 768.57,60.57 C769.92,59.22 773.98,59.00 797.67,59.00 L 825.20 59.00 L 828.35 62.32 C831.06,65.17 843.41,83.80 867.14,120.85 C872.99,129.98 873.17,130.15 875.09,128.42 C876.17,127.44 880.81,120.76 885.41,113.57 C904.08,84.34 917.22,64.35 919.49,61.71 L 921.90 58.91 L 950.03 59.21 C976.54,59.48 978.25,59.61 979.58,61.44 C980.78,63.09 981.00,78.67 981.00,163.62 L 981.00 263.85 L 978.37 265.93 C975.87,267.89 974.49,268.00 952.04,268.00 C928.57,268.00 928.33,267.98 926.17,265.69 L 924.00 263.37 L 924.00 210.29 C924.00,162.70 923.84,157.15 922.41,156.60 C921.54,156.27 920.38,156.27 919.84,156.60 C919.30,156.93 912.09,167.39 903.82,179.85 C895.55,192.31 888.08,203.29 887.23,204.25 C885.93,205.73 883.88,206.00 873.93,206.00 C872.64,206.00 871.49,206.03 870.45,206.05 C867.60,206.11 865.65,206.16 863.89,205.58 C859.41,204.10 856.27,198.52 843.00,178.73 C835.03,166.83 827.88,156.85 827.12,156.53 C823.08,154.87 823.00,155.90 823.00,211.57 L 823.00 264.89 ZM 825.33 522.19 C823.82,523.85 821.51,524.00 796.90,524.00 C770.35,524.00 770.10,523.98 768.56,521.78 C767.17,519.80 767.00,508.42 767.00,419.35 C767.00,329.59 767.16,318.98 768.57,317.57 C769.92,316.22 773.91,316.00 796.88,316.00 C816.70,316.00 824.05,316.32 825.30,317.25 C826.83,318.38 827.02,322.16 827.25,356.00 L 827.50 393.50 L 917.50 393.50 L 918.00 355.71 C918.43,323.59 918.72,317.78 920.00,316.98 C922.09,315.66 973.59,315.71 976.07,317.04 C977.96,318.05 978.00,320.25 978.00,420.00 C978.00,519.75 977.96,521.95 976.07,522.96 C974.87,523.60 964.01,524.00 947.72,524.00 C923.40,524.00 921.18,523.85 919.65,522.17 C918.18,520.54 918.00,516.39 918.00,483.66 L 918.00 446.98 L 827.50 447.50 L 827.24 483.94 C827.01,516.08 826.78,520.58 825.33,522.19 ZM 581.00 813.17 C590.29,815.38 610.33,815.05 619.50,812.55 C640.94,806.69 658.56,794.06 670.40,776.06 C679.64,762.02 683.93,748.35 684.72,730.43 C685.86,704.74 677.22,682.40 659.33,664.77 C650.68,656.24 647.29,653.74 638.00,649.03 C603.81,631.70 563.33,638.36 536.71,665.70 C508.37,694.80 503.82,742.14 526.14,775.51 C539.03,794.79 557.78,807.66 581.00,813.17 ZM 223.28 441.65 C217.94,443.89 118.40,443.42 114.65,441.14 C109.06,437.76 108.89,436.17 109.34,393.00 C109.61,367.49 110.15,352.52 110.86,350.73 C111.47,349.21 113.13,347.52 114.55,346.98 C116.12,346.38 137.86,346.00 170.13,346.00 C223.05,346.00 226.08,346.18 228.23,349.40 C229.46,351.23 229.16,435.84 227.92,438.15 C227.33,439.26 225.24,440.84 223.28,441.65 ZM 176.77 693.67 L 176.50 712.50 L 166.75 712.79 L 157.00 713.07 L 157.00 640.00 L 180.75 640.00 L 188.05 654.25 C192.07,662.09 196.12,669.78 197.07,671.34 L 198.79 674.18 L 207.64 657.10 L 216.50 640.03 L 228.26 640.02 L 240.02 640.00 L 239.76 676.25 L 239.50 712.50 L 229.75 712.79 L 220.00 713.07 L 220.00 693.54 C220.00,682.78 219.60,674.00 219.11,674.00 C218.62,674.00 215.29,679.74 211.71,686.75 L 205.19 699.50 L 192.16 700.09 L 185.83 687.86 C182.35,681.14 178.95,675.46 178.27,675.24 C177.34,674.94 176.98,679.35 176.77,693.67 ZM 362.07 690.00 L 361.50 712.50 L 351.95 712.78 C346.70,712.94 342.09,712.75 341.70,712.37 C341.32,711.98 341.00,695.54 341.00,675.83 L 341.00 640.00 L 362.82 640.00 C387.42,640.00 392.53,640.90 398.67,646.28 C403.79,650.78 405.95,656.10 405.98,664.28 C406.01,672.70 402.90,679.51 397.15,683.64 C395.64,684.73 394.56,685.23 394.21,686.05 C393.61,687.45 395.16,689.77 400.38,697.56 C401.20,698.79 402.11,700.14 403.11,701.65 C406.83,707.23 409.60,712.07 409.27,712.40 C408.94,712.73 403.45,712.99 397.08,712.97 L 385.50 712.94 L 371.73 690.00 ZM 828.71 668.37 C829.10,668.76 847.74,668.95 870.14,668.79 C909.47,668.51 910.95,668.43 913.62,666.44 C919.83,661.80 920.50,659.91 920.50,647.00 C920.50,636.59 920.25,634.81 918.43,632.33 C913.81,626.03 913.64,626.00 868.75,626.00 L 828.00 626.00 L 828.00 646.83 C828.00,658.29 828.32,667.99 828.71,668.37 ZM 628.09 460.86 C631.62,461.28 634.84,461.46 635.25,461.25 C635.66,461.05 636.00,407.68 636.00,342.66 C636.00,237.29 635.83,224.20 634.44,222.22 C633.59,221.00 633.21,220.00 633.60,220.00 C633.99,220.00 633.48,219.08 632.46,217.95 C630.97,216.31 629.61,215.97 625.55,216.20 L 620.50 216.50 L 620.25 337.45 C620.11,403.97 620.37,458.77 620.84,459.24 C621.31,459.71 624.57,460.43 628.09,460.86 ZM 276.78 698.75 L 276.50 712.50 L 266.95 712.78 C261.70,712.94 257.09,712.75 256.70,712.37 C256.32,711.98 256.00,695.54 256.00,675.83 L 256.00 640.00 L 276.94 640.00 L 277.22 653.75 L 277.50 667.50 L 303.50 667.50 L 303.78 653.75 L 304.06 640.00 L 325.02 640.00 L 324.50 712.50 L 304.00 713.07 L 304.00 685.00 L 277.06 685.00 ZM 152.25 430.20 C155.69,430.37 165.85,430.55 174.83,430.61 C188.56,430.71 191.26,430.48 191.75,429.21 C192.07,428.38 192.37,411.79 192.41,392.35 L 192.50 357.00 L 146.00 357.00 L 146.00 429.90 ZM 155.24 256.91 C147.40,261.42 139.40,265.77 137.47,266.58 C134.11,267.98 133.84,267.93 131.48,265.57 L 129.00 263.09 L 129.00 227.24 C129.00,189.05 129.03,188.85 133.90,187.68 C136.42,187.08 138.91,188.11 148.00,193.53 C151.02,195.33 163.37,202.50 175.43,209.46 C187.49,216.42 197.94,222.88 198.65,223.81 C200.60,226.37 200.25,229.42 197.75,231.71 C196.51,232.84 189.65,237.13 182.50,241.24 C175.35,245.35 163.08,252.40 155.24,256.91 ZM 47.24 460.95 C49.14,461.70 56.76,461.34 57.83,460.44 C58.08,460.23 58.28,238.04 58.05,218.75 C58.01,215.45 57.71,215.00 55.55,215.00 C51.83,215.00 48.52,216.86 46.68,219.96 C45.17,222.52 45.03,232.96 45.01,341.41 L 44.99 460.06 ZM 415.20 252.18 C410.49,257.12 410.00,257.37 404.38,257.69 C397.28,258.09 392.13,255.72 388.74,250.48 L 386.50 247.02 L 331.18 247.01 C294.13,247.00 275.21,246.65 273.89,245.94 C271.56,244.69 269.81,240.67 270.65,238.48 C272.01,234.92 274.43,234.78 330.55,234.94 L 385.84 235.10 L 388.88 230.67 C392.18,225.88 397.59,223.00 403.31,223.00 C408.16,223.00 415.14,226.94 417.92,231.25 L 420.34 235.00 L 442.51 235.00 C462.73,235.00 464.84,235.16 466.35,236.83 C468.65,239.38 468.41,241.68 465.55,244.55 C463.09,247.00 463.08,247.00 441.62,247.00 L 420.14 247.00 ZM 440.00 368.00 C438.04,369.96 436.67,370.00 366.00,370.00 C295.33,370.00 293.96,369.96 292.00,368.00 C289.58,365.58 289.45,362.76 291.62,359.46 L 293.23 357.00 L 438.77 357.00 L 440.38 359.46 C442.55,362.76 442.42,365.58 440.00,368.00 ZM 440.17 207.35 C438.50,208.86 431.23,209.00 356.24,209.00 L 274.15 209.00 L 272.07 206.37 C269.59,203.21 269.58,203.05 271.56,200.22 L 273.11 198.00 L 356.36 198.00 C419.77,198.00 439.89,198.29 440.80,199.20 C442.59,200.99 442.25,205.47 440.17,207.35 ZM 645.00 734.00 C643.11,735.89 641.68,736.00 619.25,735.98 C606.19,735.98 594.83,735.55 594.02,735.03 C593.01,734.40 592.32,731.44 591.85,725.80 C590.73,712.39 590.88,679.63 592.08,676.21 C593.44,672.29 598.12,670.90 601.05,673.55 C602.82,675.15 602.99,677.10 603.23,699.89 L 603.50 724.50 L 623.92 724.77 C636.93,724.94 644.83,725.44 645.67,726.14 C647.63,727.76 647.29,731.71 645.00,734.00 ZM 540.83 81.40 C538.84,82.80 533.67,83.00 499.78,83.00 C462.33,83.00 460.93,82.93 459.00,81.00 C456.65,78.65 456.45,76.13 458.42,73.44 C459.77,71.59 461.57,71.48 497.17,71.18 C539.61,70.81 542.27,71.13 542.81,76.65 C543.04,79.02 542.54,80.21 540.83,81.40 ZM 541.17 114.35 C539.53,115.83 535.19,116.00 499.73,116.00 L 460.11 116.00 L 458.56 113.78 C456.51,110.85 456.59,108.68 458.83,106.65 C460.47,105.17 464.81,105.00 500.26,105.00 C534.92,105.00 540.05,105.20 541.43,106.57 C543.54,108.68 543.42,112.31 541.17,114.35 ZM 165.92 123.59 C163.10,126.59 161.22,126.62 156.90,123.73 C151.91,120.40 150.00,115.84 150.00,107.23 C150.00,100.53 149.81,99.87 147.61,98.87 C142.21,96.41 141.58,89.71 146.50,87.00 C149.41,85.40 149.52,85.08 150.04,76.42 C150.64,66.41 151.71,63.75 156.31,60.95 C160.33,58.50 163.14,58.48 166.10,60.88 C168.16,62.55 168.29,63.07 167.23,65.40 C166.57,66.84 164.90,68.55 163.51,69.18 C161.15,70.25 161.00,70.77 161.00,77.95 C161.00,83.41 160.47,86.61 159.14,89.22 C157.44,92.56 157.42,92.99 158.89,94.46 C160.07,95.64 160.59,98.49 160.85,105.06 C161.19,113.77 161.29,114.10 164.03,115.52 C168.02,117.58 168.73,120.60 165.92,123.59 ZM 225.10 123.73 C221.08,126.42 220.16,126.50 217.22,124.44 C213.82,122.06 214.22,117.46 218.00,115.50 C220.92,113.99 221.00,113.74 221.00,106.69 C221.00,101.56 221.55,98.34 222.87,95.75 C224.59,92.38 224.62,91.90 223.17,89.83 C222.13,88.35 221.45,84.59 221.18,78.79 C220.89,72.76 220.37,70.00 219.53,70.00 C217.51,70.00 215.00,66.52 215.00,63.71 C215.00,58.52 223.43,57.56 227.72,62.27 C231.27,66.17 232.00,68.67 232.00,76.98 C232.00,84.97 232.05,85.12 235.03,86.80 C240.28,89.75 240.28,94.80 235.02,97.79 C232.10,99.45 232.01,99.71 232.00,107.00 C232.00,115.85 230.13,120.37 225.10,123.73 ZM 512.37 244.93 C509.99,246.80 508.38,247.00 495.82,247.00 C482.38,247.00 481.83,246.92 479.45,244.55 C474.31,239.40 477.41,235.14 486.58,234.77 C500.44,234.21 511.83,234.97 513.43,236.57 C515.81,238.95 515.34,242.58 512.37,244.93 ZM 558.54 245.38 C556.57,246.67 553.31,247.00 542.54,247.00 C530.33,247.00 528.80,246.80 527.00,245.00 C524.60,242.60 524.41,238.74 526.57,236.57 C528.68,234.46 556.50,234.31 559.25,236.39 C561.91,238.41 561.51,243.43 558.54,245.38 ZM 365.71 673.32 C373.25,674.21 379.26,673.20 381.87,670.58 C385.01,667.44 385.13,662.69 382.14,659.69 C380.22,657.77 378.87,657.50 371.22,657.50 L 362.50 657.50 L 362.21 665.19 L 361.92 672.87 ZM 121.00 385.00 L 121.00 403.09 L 134.50 402.50 L 134.79 393.75 L 135.08 385.00 ZM 204.00 385.00 L 204.00 402.00 L 210.38 402.00 C217.79,402.00 217.96,401.75 217.99,391.25 L 218.00 385.00 ZM 121.00 357.00 L 121.00 374.09 L 134.50 373.50 L 134.79 365.25 L 135.08 357.00 ZM 121.00 414.00 L 121.00 431.00 L 127.44 431.00 C130.98,431.00 134.08,430.66 134.32,430.25 C134.57,429.84 134.53,426.01 134.25,421.75 L 133.74 414.00 ZM 206.25 373.32 C207.49,373.57 210.29,373.71 212.48,373.64 C215.81,373.52 216.61,373.07 217.37,370.91 C217.86,369.49 217.95,365.78 217.56,362.66 L 216.86 357.00 L 204.00 357.00 L 204.00 364.93 C204.00,372.35 204.14,372.89 206.25,373.32 ZM 204.00 422.25 L 204.00 430.50 L 210.25 430.15 C213.69,429.96 216.82,429.28 217.22,428.65 C218.22,427.05 217.96,417.87 216.85,415.75 C216.13,414.38 214.63,414.00 209.96,414.00 L 204.00 414.00 ZM 338.37 422.93 C336.92,424.07 335.23,424.95 334.62,424.88 C330.66,424.47 327.63,422.92 327.41,421.20 C327.37,420.82 326.98,419.71 326.56,418.75 C326.13,417.79 326.13,416.21 326.56,415.25 C326.98,414.29 327.37,413.05 327.41,412.50 C327.46,411.95 328.02,411.50 328.67,411.50 C329.31,411.50 330.17,411.16 330.58,410.75 C331.00,410.34 332.52,410.00 333.98,410.00 C340.56,410.00 343.56,418.84 338.37,422.93 ZM 558.37 422.93 C554.12,426.26 551.34,425.42 547.65,419.66 C546.11,417.25 546.02,416.37 547.04,413.91 C548.31,410.83 548.42,410.78 554.23,410.75 C559.18,410.72 561.00,412.41 561.00,417.05 C561.00,419.97 560.39,421.34 558.37,422.93 ZM 375.38 422.76 C372.96,425.19 368.68,425.17 365.75,422.72 C362.64,420.13 362.35,418.16 364.46,414.07 C366.99,409.18 375.05,409.37 376.95,414.37 C377.98,417.08 377.27,420.86 375.38,422.76 ZM 302.18 421.97 C298.08,426.08 294.76,425.96 292.08,421.63 C289.52,417.48 289.48,415.87 291.87,412.91 C293.27,411.19 294.70,410.62 297.49,410.70 C301.72,410.82 303.57,412.27 304.54,416.22 C305.08,418.42 304.62,419.53 302.18,421.97 ZM 486.96 422.34 C484.17,425.53 481.19,425.72 477.63,422.93 C475.77,421.46 475.00,419.93 475.02,417.68 C475.03,413.64 475.86,412.38 479.36,411.05 C486.17,408.46 491.78,416.79 486.96,422.34 ZM 412.41 421.92 C409.40,425.50 407.25,425.77 403.76,423.02 C400.53,420.49 399.94,418.06 401.58,414.14 C402.88,411.05 404.39,410.42 409.50,410.85 C411.91,411.05 415.00,414.53 415.00,417.03 C415.00,418.03 413.83,420.23 412.41,421.92 ZM 448.92 422.41 C445.33,425.43 444.26,425.57 441.15,423.39 C436.21,419.93 436.75,412.98 442.11,411.11 C450.13,408.32 455.36,416.99 448.92,422.41 ZM 522.55 422.55 C519.43,425.66 516.57,425.66 513.45,422.55 C508.55,417.64 511.27,411.00 518.17,411.00 C524.77,411.00 527.33,417.76 522.55,422.55 ZM 399.00 245.00 C401.68,247.68 404.57,247.52 407.55,244.55 C410.66,241.43 410.64,239.55 407.45,236.36 C405.47,234.38 404.29,233.95 402.20,234.46 C396.99,235.71 395.29,241.29 399.00,245.00 Z" fill="rgb(2,2,2)" />
<path d="M 628.09 460.86 C624.57,460.43 621.31,459.71 620.84,459.24 C620.37,458.77 620.11,403.97 620.25,337.45 L 620.50 216.50 L 625.55 216.20 C629.61,215.97 630.97,216.31 632.46,217.95 C633.48,219.08 633.99,220.00 633.60,220.00 C633.21,220.00 633.59,221.00 634.44,222.22 C635.83,224.20 636.00,237.29 636.00,342.66 C636.00,407.68 635.66,461.05 635.25,461.25 C634.84,461.46 631.62,461.28 628.09,460.86 ZM 47.24 460.95 L 44.99 460.06 L 45.01 341.41 C45.03,232.96 45.17,222.52 46.68,219.96 C48.52,216.86 51.83,215.00 55.55,215.00 C57.71,215.00 58.01,215.45 58.05,218.75 C58.28,238.04 58.08,460.23 57.83,460.44 C56.76,461.34 49.14,461.70 47.24,460.95 Z" fill="#a4f4d4" />
<path d="M 70.23 234.57 C70.50,164.91 70.52,164.11 72.59,161.32 C73.10,160.63 73.30,160.02 73.61,159.48 C75.97,155.47 85.15,155.47 283.51,155.50 C300.57,155.50 319.03,155.50 339.00,155.50 C585.96,155.50 597.65,155.58 600.79,157.30 C602.61,158.29 604.97,160.54 606.04,162.30 C607.93,165.39 607.99,167.83 608.00,235.25 C608.00,273.61 607.82,305.00 607.61,305.00 C607.39,305.00 605.26,304.11 602.86,303.02 C598.55,301.07 595.38,301.04 339.33,301.02 C82.36,301.00 80.13,301.02 75.50,303.00 C72.93,304.10 70.64,305.00 70.40,305.00 C70.16,305.00 70.08,273.31 70.23,234.57 Z M 155.24 256.91 C163.08,252.40 175.35,245.35 182.50,241.24 C189.65,237.13 196.51,232.84 197.75,231.71 C200.25,229.42 200.60,226.37 198.65,223.81 C197.94,222.88 187.49,216.42 175.43,209.46 C163.37,202.50 151.02,195.33 148.00,193.53 C138.91,188.11 136.42,187.08 133.90,187.68 C129.03,188.85 129.00,189.05 129.00,227.24 L 129.00 263.09 L 131.48 265.57 C133.84,267.93 134.11,267.98 137.47,266.58 C139.40,265.77 147.40,261.42 155.24,256.91 Z M 415.20 252.18 L 420.14 247.00 L 441.62 247.00 C463.08,247.00 463.09,247.00 465.55,244.55 C468.41,241.68 468.65,239.38 466.35,236.83 C464.84,235.16 462.73,235.00 442.51,235.00 L 420.34 235.00 L 417.92 231.25 C415.14,226.94 408.16,223.00 403.31,223.00 C397.59,223.00 392.18,225.88 388.88,230.67 L 385.84 235.10 L 330.55 234.94 C274.43,234.78 272.01,234.92 270.65,238.48 C269.81,240.67 271.56,244.69 273.89,245.94 C275.21,246.65 294.13,247.00 331.18,247.01 L 386.50 247.02 L 388.74 250.48 C392.13,255.72 397.28,258.09 404.38,257.69 C410.00,257.37 410.49,257.12 415.20,252.18 Z M 440.17 207.35 C442.25,205.47 442.59,200.99 440.80,199.20 C439.89,198.29 419.77,198.00 356.36,198.00 L 273.11 198.00 L 271.56 200.22 C269.58,203.05 269.59,203.21 272.07,206.37 L 274.15 209.00 L 356.24 209.00 C431.23,209.00 438.50,208.86 440.17,207.35 Z M 512.37 244.93 C515.34,242.58 515.81,238.95 513.43,236.57 C511.83,234.97 500.44,234.21 486.58,234.77 C477.41,235.14 474.31,239.40 479.45,244.55 C481.83,246.92 482.38,247.00 495.82,247.00 C508.38,247.00 509.99,246.80 512.37,244.93 Z M 558.54 245.38 C561.51,243.43 561.91,238.41 559.25,236.39 C556.50,234.31 528.68,234.46 526.57,236.57 C524.41,238.74 524.60,242.60 527.00,245.00 C528.80,246.80 530.33,247.00 542.54,247.00 C553.31,247.00 556.57,246.67 558.54,245.38 Z M 399.00 245.00 C395.29,241.29 396.99,235.71 402.20,234.46 C404.29,233.95 405.47,234.38 407.45,236.36 C410.64,239.55 410.66,241.43 407.55,244.55 C404.57,247.52 401.68,247.68 399.00,245.00 Z" fill="#a9dafd" />
<path d="M 45.12 810.00 C40.86,808.99 37.14,806.25 34.25,802.01 L 32.00 798.70 L 32.00 641.60 C32.01,486.60 32.03,484.46 33.99,481.24 C35.09,479.45 37.45,477.09 39.24,475.99 C42.43,474.05 44.46,474.01 133.64,474.00 C218.98,474.00 224.91,474.11 226.87,475.75 C228.02,476.71 233.95,488.08 240.05,501.00 C246.16,513.92 251.90,525.35 252.82,526.39 C253.75,527.43 256.30,529.11 258.50,530.12 C262.27,531.85 266.93,531.96 339.79,531.98 C415.38,532.00 417.17,531.96 421.04,529.98 C426.33,527.28 428.20,524.16 439.59,499.00 C444.94,487.17 450.00,476.71 450.82,475.75 C452.22,474.11 458.03,474.00 546.58,474.00 L 640.85 474.00 L 643.96 476.62 C644.94,477.44 645.75,478.03 646.44,478.74 C650.01,482.46 650.01,489.61 650.00,551.14 L 650.00 551.14 C650.00,554.88 650.00,558.81 650.00,562.95 C650.00,615.76 649.67,641.00 648.97,641.00 C648.41,641.00 645.19,639.61 641.82,637.91 C634.11,634.02 623.25,630.45 614.45,628.92 C603.51,627.01 582.41,628.25 571.71,631.41 C525.33,645.14 495.20,690.52 500.92,738.00 C503.98,763.37 513.96,783.31 532.20,800.48 C539.38,807.23 541.08,809.33 539.95,810.04 C538.14,811.16 49.86,811.13 45.12,810.00 Z M 446.80 755.60 C448.28,754.82 450.62,752.99 452.00,751.51 L 454.50 748.84 L 454.77 687.34 L 455.04 625.84 L 452.19 623.17 C450.26,621.37 449.10,619.05 448.62,616.03 C448.23,613.58 446.78,610.08 445.39,608.27 C444.76,607.44 444.38,606.72 443.88,606.09 C440.58,601.95 432.05,601.96 310.64,602.19 C301.43,602.20 291.58,602.22 281.03,602.24 L 126.34 602.50 L 122.67 605.30 C121.41,606.26 120.39,606.94 119.56,607.80 C115.99,611.52 115.99,618.67 116.00,666.80 C116.00,669.56 116.00,672.46 116.00,675.50 C116.00,678.02 116.00,680.43 116.00,682.76 C115.99,732.25 115.99,738.89 119.26,742.81 C119.92,743.60 120.71,744.29 121.66,745.19 C124.84,748.19 128.92,750.00 132.54,750.00 C134.04,750.00 135.60,750.99 136.66,752.60 C137.59,754.03 139.29,755.57 140.43,756.04 C141.57,756.50 210.36,756.90 293.30,756.94 C420.95,756.99 444.51,756.78 446.80,755.60 Z" fill="#a4f4d4" />
<path d="M 259.25 513.75 C257.51,510.86 254.95,505.92 253.56,502.77 C252.17,499.61 248.95,492.64 246.41,487.27 C243.86,481.89 241.42,476.60 240.99,475.50 C239.22,471.02 234.07,465.37 229.83,463.26 L 225.32 461.02 L 148.77 460.99 C85.88,460.96 72.01,460.71 71.09,459.61 C70.29,458.65 69.98,439.18 70.01,391.29 L 70.05 324.32 L 73.14 320.12 C74.84,317.81 77.96,315.04 80.07,313.96 C83.87,312.03 87.54,312.00 338.72,312.00 C496.49,312.00 594.77,312.36 596.82,312.95 C600.08,313.88 603.20,317.00 605.85,321.97 C606.95,324.03 607.19,337.26 607.15,392.86 L 607.09 461.22 L 531.69 461.06 C453.87,460.89 449.65,461.08 444.28,464.92 C443.06,465.79 442.05,467.08 442.03,467.78 C442.01,468.49 441.33,469.32 440.50,469.64 C439.67,469.95 439.00,470.86 439.00,471.65 C439.00,472.44 438.09,474.31 436.99,475.80 C435.88,477.30 434.76,479.64 434.51,481.01 C434.31,482.03 433.24,484.76 431.71,488.29 C432.13,487.10 431.80,487.00 430.93,487.00 C428.97,487.00 427.02,489.80 426.45,493.42 C425.67,498.33 427.16,497.91 429.80,492.47 C430.11,491.83 430.39,491.26 430.63,490.76 C426.42,500.23 420.07,513.26 418.20,515.75 L 415.76 519.00 L 262.42 519.00 ZM 223.28 441.65 C224.58,441.11 225.94,440.23 226.88,439.38 C225.01,442.59 225.83,442.87 228.92,439.59 C230.16,438.26 231.03,436.41 230.84,435.47 C230.60,434.28 229.84,434.83 228.06,437.50 C229.18,429.26 229.41,351.16 228.23,349.40 C227.67,348.55 227.03,347.91 225.43,347.43 C226.21,347.56 226.71,347.70 227.00,347.86 L 229.50 349.22 L 226.99 346.62 L 224.48 344.02 L 170.49 344.04 C140.79,344.06 115.15,344.16 113.50,344.28 C109.37,344.58 107.39,348.78 107.84,356.31 C108.29,363.79 109.64,363.59 110.20,355.95 C110.27,354.92 110.36,354.04 110.46,353.27 C109.95,358.77 109.56,372.47 109.34,393.00 C108.89,436.17 109.06,437.76 114.65,441.14 C118.40,443.42 217.94,443.89 223.28,441.65 ZM 152.25 430.20 L 146.00 429.90 L 146.00 357.00 L 192.50 357.00 L 192.41 392.35 C192.37,411.79 192.07,428.38 191.75,429.21 C191.26,430.48 188.56,430.71 174.83,430.61 C165.85,430.55 155.69,430.37 152.25,430.20 ZM 440.00 368.00 C442.42,365.58 442.55,362.76 440.38,359.46 L 438.77 357.00 L 293.23 357.00 L 291.62 359.46 C289.45,362.76 289.58,365.58 292.00,368.00 C293.96,369.96 295.33,370.00 366.00,370.00 C436.67,370.00 438.04,369.96 440.00,368.00 ZM 514.27 425.11 C517.77,426.85 519.23,426.63 522.87,423.84 C524.17,422.84 525.70,422.32 526.27,422.67 C526.87,423.04 527.01,422.82 526.61,422.18 C526.22,421.55 526.38,420.16 526.96,419.08 C527.67,417.76 527.68,416.92 526.99,416.49 C526.43,416.15 526.18,415.51 526.45,415.08 C526.71,414.66 525.67,413.10 524.13,411.63 C520.14,407.80 514.90,407.76 510.97,411.52 C509.34,413.09 508.00,415.01 508.00,415.79 C508.00,418.82 511.20,423.58 514.27,425.11 ZM 206.25 373.32 C204.14,372.89 204.00,372.35 204.00,364.93 L 204.00 357.00 L 216.86 357.00 L 217.56 362.66 C217.95,365.78 217.86,369.49 217.37,370.91 C216.61,373.07 215.81,373.52 212.48,373.64 C210.29,373.71 207.49,373.57 206.25,373.32 ZM 204.00 422.25 L 204.00 414.00 L 209.96 414.00 C214.63,414.00 216.13,414.38 216.85,415.75 C217.96,417.87 218.22,427.05 217.22,428.65 C216.82,429.28 213.69,429.96 210.25,430.15 L 204.00 430.50 ZM 448.92 422.41 C451.17,420.52 451.99,418.24 451.78,416.19 C452.20,418.08 451.78,419.94 450.50,421.00 C449.67,421.68 449.00,422.63 449.00,423.09 C449.00,424.82 452.04,422.70 452.52,420.64 C453.22,417.68 452.67,412.00 451.69,412.00 C451.25,412.00 451.21,411.44 451.60,410.75 C452.00,410.06 451.96,409.82 451.53,410.21 C451.09,410.61 449.80,410.27 448.65,409.46 C444.74,406.73 440.64,407.76 437.00,412.41 C435.58,414.22 435.63,414.26 437.75,413.13 C438.99,412.47 440.00,411.53 440.00,411.03 C440.00,410.08 442.26,410.07 444.70,410.58 C443.88,410.63 443.01,410.80 442.11,411.11 C436.75,412.98 436.21,419.93 441.15,423.39 C444.26,425.57 445.33,425.43 448.92,422.41 ZM 486.96 422.34 C491.78,416.79 486.17,408.46 479.36,411.05 C475.86,412.38 475.03,413.64 475.02,417.68 C475.01,417.98 475.03,418.27 475.05,418.55 C474.54,415.97 474.68,412.95 475.73,412.55 C476.43,412.28 477.00,411.61 477.00,411.06 C477.00,409.55 474.25,410.92 473.47,412.83 C472.12,416.14 471.88,420.90 472.96,422.93 C473.57,424.07 474.95,425.00 476.04,425.00 C478.33,425.00 478.58,423.73 476.60,422.08 C476.28,421.81 475.99,421.37 475.74,420.82 C476.16,421.58 476.78,422.26 477.63,422.93 C481.19,425.72 484.17,425.53 486.96,422.34 ZM 375.38 422.76 C377.27,420.86 377.98,417.08 376.95,414.37 C376.55,413.31 375.87,412.47 375.02,411.84 C376.55,412.57 377.00,412.48 377.00,411.61 C377.00,409.53 372.71,407.85 369.05,408.49 C364.86,409.23 364.30,409.57 362.86,412.27 C361.74,414.36 361.78,414.38 364.10,412.87 C365.44,412.00 366.73,411.39 367.97,411.01 C366.51,411.57 365.23,412.59 364.46,414.07 C362.35,418.16 362.64,420.13 365.75,422.72 C368.68,425.17 372.96,425.19 375.38,422.76 ZM 121.03 428.30 L 121.00 431.00 L 121.00 431.00 L 121.00 414.00 L 133.74 414.00 L 134.25 421.75 C134.44,424.67 134.52,427.39 134.47,428.94 C133.88,428.61 132.22,428.57 129.48,428.79 C124.86,429.18 123.66,428.93 122.49,427.38 C121.15,425.61 121.06,425.66 121.03,428.30 ZM 558.37 422.93 C560.39,421.34 561.00,419.97 561.00,417.05 C561.00,414.90 560.61,413.39 559.71,412.38 C561.22,413.69 562.05,415.38 562.15,417.40 C562.29,420.33 562.32,420.35 562.71,417.82 C563.09,415.31 560.96,409.68 559.26,408.69 C558.84,408.45 557.60,408.60 556.50,409.02 L 554.50 409.79 L 556.50 410.54 C557.13,410.78 557.71,411.06 558.24,411.36 C557.23,410.92 555.91,410.74 554.23,410.75 C548.42,410.78 548.31,410.83 547.04,413.91 C546.02,416.37 546.11,417.25 547.65,419.66 C551.34,425.42 554.12,426.26 558.37,422.93 ZM 204.00 385.00 L 204.13 385.00 L 204.70 388.75 C205.38,393.11 206.00,394.27 206.00,391.17 C206.00,389.23 206.54,389.00 211.00,389.00 C215.89,389.00 216.00,389.07 216.00,392.00 C216.00,393.65 216.23,395.00 216.50,395.00 C216.77,395.00 217.00,392.75 217.00,390.00 L 217.00 385.00 L 218.00 385.00 L 217.99 391.25 C217.96,401.75 217.79,402.00 210.38,402.00 L 204.00 402.00 ZM 338.37 422.93 C343.56,418.84 340.56,410.00 333.98,410.00 C332.52,410.00 331.00,410.34 330.58,410.75 C330.17,411.16 329.31,411.50 328.67,411.50 C328.02,411.50 327.46,411.95 327.41,412.50 C327.37,413.05 326.98,414.29 326.56,415.25 C326.13,416.21 326.13,417.79 326.56,418.75 C326.98,419.71 327.37,420.82 327.41,421.20 C327.63,422.92 330.66,424.47 334.62,424.88 C335.23,424.95 336.92,424.07 338.37,422.93 ZM 302.18 421.97 C304.62,419.53 305.08,418.42 304.54,416.22 C304.04,414.21 303.32,412.85 302.18,411.98 C304.04,412.77 304.12,412.47 303.42,410.64 C303.07,409.74 301.93,409.00 300.89,409.00 C298.65,409.00 298.50,409.99 300.33,411.09 C299.53,410.85 298.59,410.73 297.49,410.70 C294.70,410.62 293.27,411.19 291.87,412.91 C289.48,415.87 289.52,417.48 292.08,421.63 C294.76,425.96 298.08,426.08 302.18,421.97 ZM 412.41 421.92 C413.83,420.23 415.00,418.03 415.00,417.03 C415.00,414.53 411.91,411.05 409.50,410.85 C404.39,410.42 402.88,411.05 401.58,414.14 C399.94,418.06 400.53,420.49 403.76,423.02 C406.19,424.94 407.97,425.39 409.84,424.28 C409.16,424.73 408.47,425.12 408.00,425.29 C407.12,425.61 407.59,425.87 409.13,425.92 C410.57,425.96 412.32,425.31 413.02,424.48 C414.79,422.35 413.39,421.35 411.26,423.21 C411.11,423.34 410.95,423.47 410.78,423.60 C411.30,423.16 411.84,422.60 412.41,421.92 ZM 121.00 368.94 L 121.00 357.00 L 128.00 357.00 C121.67,357.00 121.00,357.19 121.00,359.00 C121.00,360.10 121.45,361.00 122.00,361.00 C122.55,361.00 123.00,360.53 123.00,359.95 C123.00,359.33 125.03,358.99 128.00,359.13 C132.95,359.36 133.00,359.39 133.00,362.68 C133.00,364.51 133.45,366.00 134.00,366.00 C134.35,366.00 134.66,365.19 134.84,363.96 L 134.79 365.25 L 134.61 370.35 C134.57,370.30 134.53,370.25 134.49,370.21 C134.07,369.82 133.53,370.06 133.28,370.75 C132.80,372.10 127.23,372.44 125.33,371.22 C124.69,370.82 123.85,369.24 123.47,367.73 C122.29,363.02 121.00,363.65 121.00,368.94 ZM 121.00 397.94 L 121.00 385.00 L 128.04 385.00 C121.06,385.00 121.00,385.02 121.00,387.69 C121.00,390.24 121.07,390.28 122.40,388.47 C123.62,386.80 124.11,386.72 126.20,387.84 C128.80,389.23 131.06,389.10 132.23,387.50 C132.64,386.95 132.98,389.76 132.98,393.75 C132.99,397.93 132.58,401.00 132.00,401.00 C131.45,401.00 131.00,401.48 131.00,402.07 C131.00,402.31 131.12,402.50 131.33,402.64 L 127.31 402.81 C128.33,402.63 129.00,402.34 129.00,402.00 C129.00,401.45 128.26,401.00 127.36,401.00 C125.42,401.00 123.08,398.19 123.03,395.81 C123.01,394.88 122.55,393.84 122.00,393.50 C121.38,393.12 121.00,394.82 121.00,397.94 ZM 170.00 346.00 C137.80,346.00 116.12,346.38 114.55,346.98 C113.55,347.36 112.43,348.31 111.64,349.37 C112.01,348.76 112.48,348.23 113.07,347.70 L 115.50 345.50 ZM 487.72 413.72 C488.19,414.93 488.49,415.03 488.80,414.09 C489.52,411.95 484.49,407.59 482.34,408.48 C480.76,409.13 480.97,409.44 483.79,410.64 C485.60,411.41 487.37,412.79 487.72,413.72 ZM 399.75 411.54 C399.29,413.92 399.32,413.93 402.11,412.28 C404.18,411.05 404.65,410.28 403.89,409.37 C402.42,407.59 400.29,408.71 399.75,411.54 ZM 524.86 415.76 C524.25,413.08 521.83,411.00 518.17,411.00 C514.47,411.00 511.98,412.91 511.21,415.43 C511.59,411.50 511.62,411.50 516.54,411.00 C520.55,410.60 521.83,410.86 523.25,412.40 C524.13,413.35 524.66,414.52 524.86,415.76 ZM 122.54 414.00 C121.67,414.00 121.00,414.87 121.00,416.00 C121.00,417.10 121.21,418.00 121.46,418.00 C121.72,418.00 122.41,417.10 123.00,416.00 C123.85,414.40 123.76,414.00 122.54,414.00 ZM 510.97 417.48 C511.07,419.16 511.85,420.94 513.45,422.55 C513.74,422.83 514.02,423.09 514.31,423.32 C512.11,422.01 510.00,420.34 510.42,419.90 C510.57,419.75 510.79,418.78 510.97,417.48 ZM 123.06 431.00 L 127.67 430.80 C130.80,430.66 133.57,430.18 134.43,429.68 C134.40,429.97 134.37,430.17 134.32,430.25 C134.08,430.66 130.98,431.00 127.44,431.00 ZM 133.41 402.55 C134.33,401.88 134.59,399.88 134.79,393.75 L 134.50 402.50 ZM 134.53 372.71 L 134.50 373.50 L 133.23 373.56 C133.89,373.36 134.30,373.08 134.53,372.71 ZM 517.44 424.84 C518.33,424.96 519.22,424.80 520.11,424.37 C519.39,424.76 518.71,425.00 518.24,425.00 C518.03,425.00 517.76,424.94 517.44,424.84 ZM 123.09 374.00 L 121.00 374.09 L 121.00 374.00 ZM 123.09 403.00 L 121.00 403.09 L 121.00 403.00 ZM 135.00 359.30 L 135.00 357.00 L 135.08 357.00 Z" fill="#d7f171" />
<path d="M 104.00 93.45 C104.00,92.49 104.00,91.54 104.00,90.61 L 104.00 90.61 C104.00,47.19 104.00,40.65 107.26,37.11 C107.91,36.41 108.68,35.82 109.61,35.09 L 112.27 33.00 L 343.68 33.00 C362.17,33.00 379.21,33.00 394.92,32.99 C569.36,32.97 579.94,32.96 581.88,37.06 C582.18,37.69 582.27,38.42 582.73,39.27 C584.36,42.24 584.50,46.61 584.50,93.00 L 584.50 143.50 L 344.25 143.75 L 104.00 144.00 ZM 540.83 81.40 C542.54,80.21 543.04,79.02 542.81,76.65 C542.27,71.13 539.61,70.81 497.17,71.18 C461.57,71.48 459.77,71.59 458.42,73.44 C456.45,76.13 456.65,78.65 459.00,81.00 C460.93,82.93 462.33,83.00 499.78,83.00 C533.67,83.00 538.84,82.80 540.83,81.40 ZM 541.17 114.35 C543.42,112.31 543.54,108.68 541.43,106.57 C540.05,105.20 534.92,105.00 500.26,105.00 C464.81,105.00 460.47,105.17 458.83,106.65 C456.59,108.68 456.51,110.85 458.56,113.78 L 460.11 116.00 L 499.73 116.00 C535.19,116.00 539.53,115.83 541.17,114.35 ZM 165.92 123.59 C168.73,120.60 168.02,117.58 164.03,115.52 C161.29,114.10 161.19,113.77 160.85,105.06 C160.59,98.49 160.07,95.64 158.89,94.46 C157.42,92.99 157.44,92.56 159.14,89.22 C160.47,86.61 161.00,83.41 161.00,77.95 C161.00,70.77 161.15,70.25 163.51,69.18 C164.90,68.55 166.57,66.84 167.23,65.40 C168.29,63.07 168.16,62.55 166.10,60.88 C163.14,58.48 160.33,58.50 156.31,60.95 C151.71,63.75 150.64,66.41 150.04,76.42 C149.52,85.08 149.41,85.40 146.50,87.00 C141.58,89.71 142.21,96.41 147.61,98.87 C149.81,99.87 150.00,100.53 150.00,107.23 C150.00,115.84 151.91,120.40 156.90,123.73 C161.22,126.62 163.10,126.59 165.92,123.59 ZM 225.10 123.73 C230.13,120.37 232.00,115.85 232.00,107.00 C232.01,99.71 232.10,99.45 235.02,97.79 C240.28,94.80 240.28,89.75 235.03,86.80 C232.05,85.12 232.00,84.97 232.00,76.98 C232.00,68.67 231.27,66.17 227.72,62.27 C223.43,57.56 215.00,58.52 215.00,63.71 C215.00,66.52 217.51,70.00 219.53,70.00 C220.37,70.00 220.89,72.76 221.18,78.79 C221.45,84.59 222.13,88.35 223.17,89.83 C224.62,91.90 224.59,92.38 222.87,95.75 C221.55,98.34 221.00,101.56 221.00,106.69 C221.00,113.74 220.92,113.99 218.00,115.50 C214.22,117.46 213.82,122.06 217.22,124.44 C220.16,126.50 221.08,126.42 225.10,123.73 Z" fill="#cfc7ff" />
<path d="M 170.00 346.00 L 115.50 345.50 L 113.07 347.70 C112.48,348.23 112.01,348.76 111.64,349.37 C111.31,349.82 111.04,350.28 110.86,350.73 C110.72,351.08 110.59,351.93 110.46,353.27 C110.36,354.04 110.27,354.92 110.20,355.95 C109.64,363.59 108.29,363.79 107.84,356.31 C107.39,348.78 109.37,344.58 113.50,344.28 C115.15,344.16 140.79,344.06 170.49,344.04 L 224.48 344.02 L 226.99 346.62 L 229.50 349.22 L 227.00 347.86 C226.71,347.70 226.21,347.56 225.43,347.43 C220.98,346.10 209.05,346.00 170.13,346.00 ZM 514.27 425.11 C511.20,423.58 508.00,418.82 508.00,415.79 C508.00,415.01 509.34,413.09 510.97,411.52 C514.90,407.76 520.14,407.80 524.13,411.63 C525.67,413.10 526.71,414.66 526.45,415.08 C526.18,415.51 526.43,416.15 526.99,416.49 C527.68,416.92 527.67,417.76 526.96,419.08 C526.38,420.16 526.22,421.55 526.61,422.18 C527.01,422.82 526.87,423.04 526.27,422.67 C525.70,422.32 524.17,422.84 522.87,423.84 C519.23,426.63 517.77,426.85 514.27,425.11 ZM 522.55 422.55 C524.67,420.42 525.35,417.90 524.86,415.76 C524.66,414.52 524.13,413.35 523.25,412.40 C521.83,410.86 520.55,410.60 516.54,411.00 C511.62,411.50 511.59,411.50 511.21,415.43 C511.01,416.08 510.93,416.77 510.97,417.48 C510.79,418.78 510.57,419.75 510.42,419.90 C510.00,420.34 512.11,422.01 514.31,423.32 C515.37,424.20 516.40,424.71 517.44,424.84 C517.76,424.94 518.03,425.00 518.24,425.00 C518.71,425.00 519.39,424.76 520.11,424.37 C520.91,423.98 521.72,423.37 522.55,422.55 ZM 133.41 402.55 L 131.33 402.64 C131.12,402.50 131.00,402.31 131.00,402.07 C131.00,401.48 131.45,401.00 132.00,401.00 C132.58,401.00 132.99,397.93 132.98,393.75 C132.98,389.76 132.64,386.95 132.23,387.50 C131.06,389.10 128.80,389.23 126.20,387.84 C124.11,386.72 123.62,386.80 122.40,388.47 C121.07,390.28 121.00,390.24 121.00,387.69 C121.00,385.02 121.06,385.00 128.04,385.00 L 135.08 385.00 L 134.79 393.75 C134.59,399.88 134.33,401.88 133.41,402.55 ZM 204.70 388.75 L 204.13 385.00 L 217.00 385.00 L 217.00 390.00 C217.00,392.75 216.77,395.00 216.50,395.00 C216.23,395.00 216.00,393.65 216.00,392.00 C216.00,389.07 215.89,389.00 211.00,389.00 C206.54,389.00 206.00,389.23 206.00,391.17 C206.00,394.27 205.38,393.11 204.70,388.75 ZM 121.00 368.94 C121.00,363.65 122.29,363.02 123.47,367.73 C123.85,369.24 124.69,370.82 125.33,371.22 C127.23,372.44 132.80,372.10 133.28,370.75 C133.53,370.06 134.07,369.82 134.49,370.21 C134.53,370.25 134.57,370.30 134.61,370.35 L 134.53 372.71 C134.30,373.08 133.89,373.36 133.23,373.56 L 123.09 374.00 L 121.00 374.00 ZM 450.50 421.00 C451.78,419.94 452.20,418.08 451.78,416.19 C451.45,413.00 448.62,410.37 444.70,410.58 C442.26,410.07 440.00,410.08 440.00,411.03 C440.00,411.53 438.99,412.47 437.75,413.13 C435.63,414.26 435.58,414.22 437.00,412.41 C440.64,407.76 444.74,406.73 448.65,409.46 C449.80,410.27 451.09,410.61 451.53,410.21 C451.96,409.82 452.00,410.06 451.60,410.75 C451.21,411.44 451.25,412.00 451.69,412.00 C452.67,412.00 453.22,417.68 452.52,420.64 C452.04,422.70 449.00,424.82 449.00,423.09 C449.00,422.63 449.67,421.68 450.50,421.00 ZM 135.00 359.30 L 134.84 363.96 C134.66,365.19 134.35,366.00 134.00,366.00 C133.45,366.00 133.00,364.51 133.00,362.68 C133.00,359.39 132.95,359.36 128.00,359.13 C125.03,358.99 123.00,359.33 123.00,359.95 C123.00,360.53 122.55,361.00 122.00,361.00 C121.45,361.00 121.00,360.10 121.00,359.00 C121.00,357.19 121.67,357.00 128.00,357.00 L 135.00 357.00 ZM 475.73 412.55 C474.68,412.95 474.54,415.97 475.05,418.55 C475.14,419.40 475.36,420.14 475.74,420.82 C475.99,421.37 476.28,421.81 476.60,422.08 C478.58,423.73 478.33,425.00 476.04,425.00 C474.95,425.00 473.57,424.07 472.96,422.93 C471.88,420.90 472.12,416.14 473.47,412.83 C474.25,410.92 477.00,409.55 477.00,411.06 C477.00,411.61 476.43,412.28 475.73,412.55 ZM 121.00 397.94 C121.00,394.82 121.38,393.12 122.00,393.50 C122.55,393.84 123.01,394.88 123.03,395.81 C123.08,398.19 125.42,401.00 127.36,401.00 C128.26,401.00 129.00,401.45 129.00,402.00 C129.00,402.34 128.33,402.63 127.31,402.81 L 123.09 403.00 L 121.00 403.00 ZM 377.00 411.61 C377.00,412.48 376.55,412.57 375.02,411.84 C373.09,410.41 370.30,410.13 367.97,411.01 C366.73,411.39 365.44,412.00 364.10,412.87 C361.78,414.38 361.74,414.36 362.86,412.27 C364.30,409.57 364.86,409.23 369.05,408.49 C372.71,407.85 377.00,409.53 377.00,411.61 ZM 121.03 428.30 C121.06,425.66 121.15,425.61 122.49,427.38 C123.66,428.93 124.86,429.18 129.48,428.79 C132.22,428.57 133.88,428.61 134.47,428.94 C134.46,429.23 134.45,429.48 134.43,429.68 C133.57,430.18 130.80,430.66 127.67,430.80 L 123.06 431.00 L 121.00 431.00 ZM 431.71 488.29 C431.37,489.07 431.01,489.90 430.63,490.76 C430.39,491.26 430.11,491.83 429.80,492.47 C427.16,497.91 425.67,498.33 426.45,493.42 C427.02,489.80 428.97,487.00 430.93,487.00 C431.80,487.00 432.13,487.10 431.71,488.29 ZM 562.15 417.40 C562.05,415.38 561.22,413.69 559.71,412.38 C559.32,411.95 558.83,411.61 558.24,411.36 C557.71,411.06 557.13,410.78 556.50,410.54 L 554.50 409.79 L 556.50 409.02 C557.60,408.60 558.84,408.45 559.26,408.69 C560.96,409.68 563.09,415.31 562.71,417.82 C562.32,420.35 562.29,420.33 562.15,417.40 ZM 487.72 413.72 C487.37,412.79 485.60,411.41 483.79,410.64 C480.97,409.44 480.76,409.13 482.34,408.48 C484.49,407.59 489.52,411.95 488.80,414.09 C488.49,415.03 488.19,414.93 487.72,413.72 ZM 399.75 411.54 C400.29,408.71 402.42,407.59 403.89,409.37 C404.65,410.28 404.18,411.05 402.11,412.28 C399.32,413.93 399.29,413.92 399.75,411.54 ZM 228.92 439.59 C225.83,442.87 225.01,442.59 226.88,439.38 C227.35,438.95 227.72,438.52 227.92,438.15 C227.97,438.06 228.02,437.84 228.06,437.50 C229.84,434.83 230.60,434.28 230.84,435.47 C231.03,436.41 230.16,438.26 228.92,439.59 ZM 409.84 424.28 C410.15,424.10 410.46,423.87 410.78,423.60 C410.95,423.47 411.11,423.34 411.26,423.21 C413.39,421.35 414.79,422.35 413.02,424.48 C412.32,425.31 410.57,425.96 409.13,425.92 C407.59,425.87 407.12,425.61 408.00,425.29 C408.47,425.12 409.16,424.73 409.84,424.28 ZM 303.42 410.64 C304.12,412.47 304.04,412.77 302.18,411.98 C301.66,411.58 301.05,411.29 300.33,411.09 C298.50,409.99 298.65,409.00 300.89,409.00 C301.93,409.00 303.07,409.74 303.42,410.64 ZM 121.46 418.00 C121.21,418.00 121.00,417.10 121.00,416.00 C121.00,414.87 121.67,414.00 122.54,414.00 C123.76,414.00 123.85,414.40 123.00,416.00 C122.41,417.10 121.72,418.00 121.46,418.00 ZM 104.00 90.61 C104.00,90.44 104.00,90.27 104.00,90.10 C104.00,90.27 104.00,90.44 104.00,90.61 Z" fill="#d7f171" />
<path d="M 581.00 813.17 C557.78,807.66 539.03,794.79 526.14,775.51 C503.82,742.14 508.37,694.80 536.71,665.70 C563.33,638.36 603.81,631.70 638.00,649.03 C647.29,653.74 650.68,656.24 659.33,664.77 C677.22,682.40 685.86,704.74 684.72,730.43 C683.93,748.35 679.64,762.02 670.40,776.06 C658.56,794.06 640.94,806.69 619.50,812.55 C610.33,815.05 590.29,815.38 581.00,813.17 ZM 645.00 734.00 C647.29,731.71 647.63,727.76 645.67,726.14 C644.83,725.44 636.93,724.94 623.92,724.77 L 603.50 724.50 L 603.23 699.89 C602.99,677.10 602.82,675.15 601.05,673.55 C598.12,670.90 593.44,672.29 592.08,676.21 C590.88,679.63 590.73,712.39 591.85,725.80 C592.32,731.44 593.01,734.40 594.02,735.03 C594.83,735.55 606.19,735.98 619.25,735.98 C641.68,736.00 643.11,735.89 645.00,734.00 Z" fill="#ff9c7b" />
    </g>


    
  </g>

  <!-- Typography Block -->
  <g transform="translate(260, 0)">
    <text x="0" y="150" class="text-title" font-size="44" letter-spacing="0">MEDIA HISTORY</text>
    <text x="0" y="200" class="text-title" font-size="44" letter-spacing="0">REGISTRY</text>
    
    <g transform="translate(0, 240)">
      <rect x="2" y="-22" width="220" height="30" class="neo-shadow" />
      <rect x="-4" y="-26" width="220" height="30" fill="#cab4e9" stroke="var(--border)" stroke-width="2" />
      <text x="6" y="-4" class="text-title" font-size="16" fill="#111111">AUDIOVISUAL HISTORY</text>
    </g>

    <text x="0" y="300" class="text-body-style" font-size="16">Your audiovisual history stored in JSON files.</text>
    <text x="0" y="330" class="text-tech" font-size="12">JSON // NEO-BRUTALISM // LOCAL-FIRST // GITHUB_PAGES</text>
  </g>

  <!-- Badges -->
  <g transform="translate(260, 390)">
    <g class="badge-float-1">
      <circle r="25" class="neo-shadow" cx="4" cy="4" />
      <circle r="25" fill="#98e4c7" stroke="var(--border)" stroke-width="2.5" />
      <text y="4" class="badge-text">JSON</text>
    </g>
  </g>
  <g transform="translate(340, 410)">
    <g class="badge-float-2">
      <circle r="25" class="neo-shadow" cx="4" cy="4" />
      <circle r="25" fill="#e6c3a5" stroke="var(--border)" stroke-width="2.5" />
      <text y="4" class="badge-text">DATA</text>
    </g>
  </g>
  <g transform="translate(420, 390)">
    <g class="badge-float-3">
      <circle r="25" class="neo-shadow" cx="4" cy="4" />
      <circle r="25" fill="#cab4e9" stroke="var(--border)" stroke-width="2.5" />
      <text y="4" class="badge-text">WEB</text>
    </g>
  </g>

  <!-- RIGHT SIDE: Neo-Brutalist Browser Mockup -->
  <g class="mockup-group">
    <!-- Window Shadow -->
    <rect x="710" y="90" width="450" height="310" class="neo-shadow" rx="4" />
    
    <!-- Window Main -->
    <rect x="700" y="80" width="450" height="310" fill="var(--window-bg)" stroke="var(--border)" stroke-width="3" rx="4" />
    
    <!-- Titlebar -->
    <path d="M 700 84 A 4 4 0 0 1 704 80 L 1146 80 A 4 4 0 0 1 1150 84 L 1150 115 L 700 115 Z" fill="var(--window-title)" stroke="var(--border)" stroke-width="3" />
    <line x1="700" y1="115" x2="1150" y2="115" stroke="var(--border)" stroke-width="3" />
    
    <!-- Window Controls -->
    <circle cx="720" cy="98" r="6" fill="#e6c3a5" stroke="var(--border)" stroke-width="2" />
    <circle cx="740" cy="98" r="6" fill="#cab4e9" stroke="var(--border)" stroke-width="2" />
    
    <!-- URL Bar -->
    <rect x="765" y="88" width="370" height="20" fill="var(--window-bg)" stroke="var(--border)" stroke-width="2" rx="2" />
    <text x="950" y="102" font-family="'Share Tech Mono', monospace" font-size="10" fill="var(--border)" text-anchor="middle">pedrolabre.github.io/media-history-registry</text>
    
    <!-- JSON Content -->
    <g transform="translate(720, 145)">
      <text class="json-text" y="0">{</text>
      <text class="json-text" y="25" x="20"><tspan class="json-key">"title"</tspan>: <tspan class="json-string">"Dune: Part Two"</tspan>,</text>
      <text class="json-text" y="50" x="20"><tspan class="json-key">"director"</tspan>: <tspan class="json-string">"Denis Villeneuve"</tspan>,</text>
      <text class="json-text" y="75" x="20"><tspan class="json-key">"type"</tspan>: <tspan class="json-string">"movie"</tspan>,</text>
      <text class="json-text" y="100" x="20"><tspan class="json-key">"rating"</tspan>: <tspan class="json-number">5</tspan>,</text>
      <text class="json-text" y="125" x="20"><tspan class="json-key">"watchedDate"</tspan>: <tspan class="json-string">"2024-03-01"</tspan>,</text>
      <text class="json-text" y="150" x="20"><tspan class="json-key">"status"</tspan>: <tspan class="json-string">"completed"</tspan>,</text>
      <text class="json-text" y="175" x="20"><tspan class="json-key">"tags"</tspan>: [<tspan class="json-string">"sci-fi"</tspan>, <tspan class="json-string">"epic"</tspan>]</text>
      <text class="json-text" y="200">}</text>
    </g>
  </g>
</svg>
